#!OML:ASF H:\Not Pregnant\Project 1\Capture day 1\Session 1\non-pregnant.ASF
:FULLY-SPECIFIED
:DEGREES
392
root -5.30618 16.3109 8.90725 -170.703 -4.91688 -179.233
lowerback 0.342017 -0.634938 1.05171
upperback -6.64682 -1.24337 -0.348615
thorax -7.13891 -0.86503 -0.849005
lowerneck 21.8183 -6.21749 -32.2936
upperneck -9.22413 -19.1053 42.1624
head 1.81172 -13.2292 23.0818
rclavicle -2.08724e-015 -7.15625e-015
rhumerus -36.8768 -8.76205 -80.3913
rradius 30.7185
rwrist 18.451
rhand -9.09834 -1.63475
rfingers 7.12502
rthumb 16.8518 -30.9235
lclavicle -2.08724e-015 -7.15625e-015
lhumerus -39.2346 -7.59859 90.4214
lradius 36.4029
lwrist 36.5307
lhand -14.8801 -12.7335
lfingers 7.12502
lthumb 11.2804 16.9432
rfemur -38.8383 1.21945 23.6398
rtibia 30.7759
rfoot 0.770857 13.151
rtoes -12.6244
lfemur 1.7707 -4.92184 -20.1884
ltibia 24.2231
lfoot -1.5156 -27.4294
ltoes -8.81852
393
root -5.31521 16.3164 9.06257 -170.618 -4.94881 -179.623
lowerback 0.558483 -0.675925 0.692486
upperback -6.58859 -1.30711 -0.455832
thorax -7.19822 -0.873581 -0.753035
lowerneck 21.7307 -6.27279 -32.2551
upperneck -9.33555 -19.0936 42.1756
head 1.79419 -13.2119 23.0642
rclavicle 2.38914e-014 -1.78906e-015
rhumerus -36.6951 -8.87213 -80.398
rradius 30.782
rwrist 18.4365
rhand -9.1834 -1.63208
rfingers 7.12502
rthumb 16.7699 -30.9278
lclavicle 2.38914e-014 -1.78906e-015
lhumerus -38.8144 -7.74116 90.3624
lradius 36.5508
lwrist 36.6257
lhand -15.0615 -12.9225
lfingers 7.12502
lthumb 11.1054 16.7636
rfemur -39.3772 1.33447 22.9062
rtibia 30.3134
rfoot 1.89765 13.6947
rtoes -12.6283
lfemur 1.79835 -5.2322 -20.6002
ltibia 23.0943
lfoot -2.17676 -27.5986
ltoes -8.84835
394
root -5.32434 16.3234 9.21747 -170.52 -4.9259 -180.024
lowerback 0.75425 -0.702072 0.312727
upperback -6.54602 -1.35711 -0.562126
thorax -7.26146 -0.875553 -0.645367
lowerneck 21.6874 -6.30324 -32.2419
upperneck -9.43809 -19.0687 42.1851
head 1.76673 -13.1906 23.0644
rclavicle 4.22417e-016 4.96962e-015
rhumerus -36.5467 -8.94342 -80.4095
rradius 30.844
rwrist 18.4156
rhand -9.24152 -1.66136
rfingers 7.12502
rthumb 16.7139 -30.9618
lclavicle 4.22417e-016 4.96962e-015
lhumerus -38.4394 -7.84016 90.2906
lradius 36.7079
lwrist 36.7263
lhand -15.2084 -13.084
lfingers 7.12502
lthumb 10.9638 16.6098
rfemur -39.9305 1.38074 22.1792
rtibia 29.8324
rfoot 3.11438 14.3734
rtoes -12.6442
lfemur 1.78455 -5.35048 -20.9968
ltibia 21.9769
lfoot -2.61978 -27.8679
ltoes -8.47557
395
root -5.33336 16.3324 9.37206 -170.408 -4.84868 -180.417
lowerback 0.925719 -0.711219 -0.0661299
upperback -6.51565 -1.38862 -0.664579
thorax -7.32333 -0.869477 -0.535575
lowerneck 21.6806 -6.32248 -32.2448
upperneck -9.53928 -19.0425 42.1888
head 1.73287 -13.1702 23.0719
rclavicle 1.12686e-014 1.07344e-014
rhumerus -36.4162 -8.99248 -80.4258
rradius 30.8918
rwrist 18.3991
rhand -9.27392 -1.69581
rfingers 7.12502
rthumb 16.6827 -30.9989
lclavicle 1.12686e-014 1.07344e-014
lhumerus -38.0942 -7.90903 90.2078
lradius 36.87
lwrist 36.8436
lhand -15.3226 -13.1869
lfingers 7.12502
lthumb 10.8536 16.5126
rfemur -40.5014 1.33979 21.5053
rtibia 29.3375
rfoot 4.46546 15.15
rtoes -12.6672
lfemur 1.71594 -5.26796 -21.3663
ltibia 20.9031
lfoot -2.89657 -28.2038
ltoes -7.81145
396
root -5.34251 16.343 9.52599 -170.288 -4.71789 -180.795
lowerback 1.06272 -0.706766 -0.439453
upperback -6.48869 -1.40414 -0.758177
thorax -7.3687 -0.856265 -0.421319
lowerneck 21.7026 -6.32722 -32.2637
upperneck -9.64175 -19.0072 42.1901
head 1.69047 -13.1466 23.0907
rclavicle -6.33626e-015 1.15295e-014
rhumerus -36.2911 -9.0129 -80.4492
rradius 30.9252
rwrist 18.3913
rhand -9.29517 -1.71885
rfingers 7.12502
rthumb 16.6623 -31.0237
lclavicle -6.33626e-015 1.15295e-014
lhumerus -37.7768 -7.93903 90.1154
lradius 37.0453
lwrist 36.9796
lhand -15.4108 -13.2431
lfingers 7.12502
lthumb 10.7685 16.4609
rfemur -41.0889 1.18662 20.918
rtibia 28.8361
rfoot 5.97571 15.9992
rtoes -12.6765
lfemur 1.59335 -5.0036 -21.7183
ltibia 19.9012
lfoot -3.04368 -28.5581
ltoes -6.95712
397
root -5.35268 16.3554 9.67859 -170.169 -4.54617 -181.141
lowerback 1.17957 -0.685953 -0.768852
upperback -6.45632 -1.39629 -0.849214
thorax -7.39752 -0.834184 -0.331171
lowerneck 21.7113 -6.34044 -32.2816
upperneck -9.73085 -18.9824 42.1857
head 1.65789 -13.1263 23.0988
rclavicle 1.42876e-015 7.7526e-015
rhumerus -36.1677 -9.02075 -80.483
rradius 30.9551
rwrist 18.3776
rhand -9.3038 -1.71947
rfingers 7.12502
rthumb 16.654 -31.025
lclavicle 1.42876e-015 7.7526e-015
lhumerus -37.4798 -7.94126 90.0101
lradius 37.243
lwrist 37.1176
lhand -15.4684 -13.2527
lfingers 7.12502
lthumb 10.7129 16.4541
rfemur -41.6792 0.895273 20.4563
rtibia 28.3265
rfoot 7.66929 16.8985
rtoes -12.6211
lfemur 1.41895 -4.61377 -22.053
ltibia 19.0038
lfoot -3.08945 -28.8842
ltoes -5.96038
398
root -5.36362 16.3694 9.83047 -170.05 -4.33859 -181.445
lowerback 1.28776 -0.649775 -1.04501
upperback -6.42703 -1.36608 -0.934106
thorax -7.42586 -0.804364 -0.266245
lowerneck 21.7162 -6.35305 -32.3016
upperneck -9.80827 -18.9612 42.1818
head 1.63097 -13.1081 23.1064
rclavicle 1.47598e-014 -9.93923e-015
rhumerus -36.057 -9.01966 -80.5235
rradius 30.9832
rwrist 18.3611
rhand -9.30372 -1.69586
rfingers 7.12502
rthumb 16.6541 -31.0014
lclavicle 1.47598e-014 -9.93923e-015
lhumerus -37.2156 -7.92878 89.8988
lradius 37.4624
lwrist 37.2679
lhand -15.4967 -13.2373
lfingers 7.12502
lthumb 10.6856 16.471
rfemur -42.2815 0.499252 20.1287
rtibia 27.8117
rfoot 9.54832 17.7893
rtoes -12.4629
lfemur 1.17906 -4.15232 -22.3684
ltibia 18.232
lfoot -3.0693 -29.1404
ltoes -4.87944
399
root -5.37523 16.3844 9.98204 -169.936 -4.09724 -181.69
lowerback 1.39723 -0.597881 -1.2527
upperback -6.3953 -1.31062 -1.00967
thorax -7.45376 -0.765671 -0.231949
lowerneck 21.6892 -6.37818 -32.316
upperneck -9.86467 -18.9515 42.1727
head 1.61947 -13.0928 23.0985
rclavicle 4.08751e-015 8.94531e-015
rhumerus -35.9519 -9.01504 -80.5717
rradius 31.0152
rwrist 18.3393
rhand -9.29498 -1.65132
rfingers 7.12502
rthumb 16.6625 -30.9561
lclavicle 4.08751e-015 8.94531e-015
lhumerus -36.9781 -7.90266 89.779
lradius 37.7088
lwrist 37.422
lhand -15.4982 -13.1995
lfingers 7.12502
lthumb 10.6842 16.5088
rfemur -42.8848 0.0397581 19.9417
rtibia 27.2873
rfoot 11.5723 18.6191
rtoes -12.1841
lfemur 0.867229 -3.67378 -22.6546
ltibia 17.6076
lfoot -3.04958 -29.298
ltoes -3.80323
400
root -5.38795 16.3996 10.1334 -169.831 -3.82493 -181.887
lowerback 1.51944 -0.53587 -1.40046
upperback -6.37285 -1.2389 -1.07246
thorax -7.50021 -0.722171 -0.218949
lowerneck 21.6664 -6.38994 -32.3461
upperneck -9.90523 -18.9334 42.1635
head 1.60917 -13.0737 23.0992
rclavicle -1.83255e-015 -2.38542e-015
rhumerus -35.8709 -8.99243 -80.6171
rradius 31.0372
rwrist 18.326
rhand -9.27173 -1.60782
rfingers 7.12502
rthumb 16.6849 -30.9108
lclavicle -1.83255e-015 -2.38542e-015
lhumerus -36.796 -7.86042 89.664
lradius 37.9831
lwrist 37.6002
lhand -15.4726 -13.1804
lfingers 7.12502
lthumb 10.7089 16.5267
rfemur -43.4773 -0.47866 19.8836
rtibia 26.761
rfoot 13.6566 19.368
rtoes -11.7476
lfemur 0.488401 -3.22628 -22.9278
ltibia 17.1405
lfoot -3.11402 -29.3383
ltoes -2.84141
401
root -5.40176 16.4143 10.284 -169.742 -3.53199 -182.032
lowerback 1.66441 -0.466765 -1.482
upperback -6.35866 -1.1542 -1.12297
thorax -7.56986 -0.675616 -0.231073
lowerneck 21.6379 -6.40009 -32.3846
upperneck -9.92949 -18.9171 42.1481
head 1.60498 -13.0541 23.096
rclavicle 7.45443e-016 -9.34288e-015
rhumerus -35.8176 -8.956 -80.6598
rradius 31.0501
rwrist 18.3191
rhand -9.241 -1.57055
rfingers 7.12502
rthumb 16.7144 -30.871
lclavicle 7.45443e-016 -9.34288e-015
lhumerus -36.6723 -7.80962 89.5536
lradius 38.2804
lwrist 37.7975
lhand -15.429 -13.1961
lfingers 7.12502
lthumb 10.751 16.5088
rfemur -44.0285 -1.04006 19.9467
rtibia 26.2416
rfoot 15.6809 20.0333
rtoes -11.1304
lfemur 0.0462698 -2.83998 -23.1812
ltibia 16.8348
lfoot -3.29196 -29.2704
ltoes -1.95073
402
root -5.41677 16.427 10.433 -169.678 -3.22635 -182.146
lowerback 1.83075 -0.395121 -1.51935
upperback -6.34482 -1.06314 -1.16668
thorax -7.65298 -0.62795 -0.261475
lowerneck 21.5989 -6.40618 -32.4259
upperneck -9.93909 -18.8951 42.1276
head 1.6034 -13.0302 23.0897
rclavicle -5.8393e-015 -1.47101e-014
rhumerus -35.7938 -8.89937 -80.7023
rradius 31.0672
rwrist 18.307
rhand -9.19472 -1.55806
rfingers 7.12502
rthumb 16.759 -30.8547
lclavicle -5.8393e-015 -1.47101e-014
lhumerus -36.6109 -7.75276 89.447
lradius 38.612
lwrist 38.0134
lhand -15.3691 -13.2618
lfingers 7.12502
lthumb 10.8087 16.4401
rfemur -44.5147 -1.62983 20.0907
rtibia 25.7543
rfoot 17.5304 20.6355
rtoes -10.1388
lfemur -0.436846 -2.52594 -23.4331
ltibia 16.6752
lfoot -3.64037 -29.1102
ltoes -1.27918
403
root -5.43238 16.4376 10.5805 -169.636 -2.9142 -182.239
lowerback 2.01553 -0.324345 -1.52672
upperback -6.33118 -0.97103 -1.20418
thorax -7.74736 -0.581058 -0.302539
lowerneck 21.56 -6.40858 -32.4719
upperneck -9.94798 -18.8695 42.1058
head 1.60061 -13.0043 23.0852
rclavicle 1.37286e-015 1.19271e-015
rhumerus -35.7956 -8.82902 -80.7427
rradius 31.0818
rwrist 18.2995
rhand -9.13757 -1.54113
rfingers 7.12502
rthumb 16.814 -30.8331
lclavicle 1.37286e-015 1.19271e-015
lhumerus -36.6072 -7.69005 89.3424
lradius 38.9718
lwrist 38.2234
lhand -15.3071 -13.3525
lfingers 7.12502
lthumb 10.8686 16.3462
rfemur -44.9114 -2.16502 20.2477
rtibia 25.3234
rfoot 19.0521 21.1315
rtoes -8.81459
lfemur -0.959726 -2.28118 -23.6828
ltibia 16.6479
lfoot -4.15594 -28.8673
ltoes -0.828075
404
root -5.44822 16.4446 10.7256 -169.618 -2.59924 -182.323
lowerback 2.21721 -0.25511 -1.52134
upperback -6.31718 -0.880132 -1.2402
thorax -7.85134 -0.535303 -0.34949
lowerneck 21.5222 -6.40614 -32.5176
upperneck -9.95508 -18.8402 42.086
head 1.59654 -12.9776 23.084
rclavicle 2.64632e-015 -5.96354e-016
rhumerus -35.8275 -8.75785 -80.7793
rradius 31.0948
rwrist 18.3045
rhand -9.0749 -1.51385
rfingers 7.12502
rthumb 16.8743 -30.8007
lclavicle 2.64632e-015 -5.96354e-016
lhumerus -36.6612 -7.63987 89.2431
lradius 39.354
lwrist 38.4188
lhand -15.279 -13.4328
lfingers 7.12502
lthumb 10.8957 16.2645
rfemur -45.1951 -2.54864 20.3301
rtibia 24.985
rfoot 20.054 21.4944
rtoes -7.39291
lfemur -1.50064 -2.08854 -23.9372
ltibia 16.7304
lfoot -4.84631 -28.5544
ltoes -0.686
405
root -5.46365 16.4479 10.8681 -169.625 -2.28014 -182.409
lowerback 2.4104 -0.186693 -1.52044
upperback -6.28616 -0.788565 -1.27769
thorax -7.93185 -0.488553 -0.396331
lowerneck 21.4787 -6.40345 -32.5598
upperneck -9.97472 -18.8093 42.0782
head 1.59116 -12.9522 23.0908
rclavicle 3.30169e-015 3.37934e-015
rhumerus -35.8611 -8.69996 -80.814
rradius 31.1
rwrist 18.3222
rhand -9.00915 -1.4647
rfingers 7.12502
rthumb 16.9376 -30.7462
lclavicle 3.30169e-015 3.37934e-015
lhumerus -36.7411 -7.59115 89.1363
lradius 39.7438
lwrist 38.5957
lhand -15.2586 -13.5083
lfingers 7.12502
lthumb 10.9153 16.188
rfemur -45.3501 -2.65721 20.2377
rtibia 24.7752
rfoot 20.3963 21.6413
rtoes -6.14833
lfemur -2.04801 -1.93604 -24.1998
ltibia 16.8995
lfoot -5.66656 -28.1766
ltoes -0.819063
406
root -5.47811 16.4474 11.0083 -169.656 -1.96129 -182.506
lowerback 2.6111 -0.117013 -1.53736
upperback -6.24988 -0.696597 -1.32041
thorax -8.01098 -0.440593 -0.439239
lowerneck 21.4467 -6.39669 -32.6002
upperneck -10.0053 -18.7794 42.083
head 1.58296 -12.9311 23.109
rclavicle 1.20513e-015 -1.78906e-014
rhumerus -35.9193 -8.66431 -80.8409
rradius 31.1034
rwrist 18.3499
rhand -8.94221 -1.40274
rfingers 7.12502
rthumb 17.0021 -30.6787
lclavicle 1.20513e-015 -1.78906e-014
lhumerus -36.8602 -7.55673 89.0271
lradius 40.1321
lwrist 38.7641
lhand -15.2397 -13.5793
lfingers 7.12502
lthumb 10.9335 16.116
rfemur -45.3833 -2.43306 19.9124
rtibia 24.7376
rfoot 20.008 21.5018
rtoes -5.34849
lfemur -2.58838 -1.8112 -24.474
ltibia 17.1245
lfoot -6.53732 -27.7455
ltoes -1.07616
